<?xml version="1.0" standalone="no"?>
<!DOCTYPE svg PUBLIC "-//W3C//DTD SVG 20010904//EN"
 "http://www.w3.org/TR/2001/REC-SVG-20010904/DTD/svg10.dtd">
<svg version="1.0" xmlns="http://www.w3.org/2000/svg"
 width="500.000000pt" height="500.000000pt" viewBox="0 0 500.000000 500.000000"
 preserveAspectRatio="xMidYMid meet">

<g transform="translate(0.000000,500.000000) scale(0.100000,-0.100000)"
fill="#000000" stroke="none">
<path d="M3780 3680 l0 -71 68 3 67 3 0 65 0 65 -67 3 -68 3 0 -71z"/>
<path d="M1530 2871 l0 -758 108 -52 c155 -76 292 -154 416 -238 102 -70 107
-72 79 -36 -51 63 -271 273 -380 362 l-103 84 0 627 c0 345 3 629 6 633 17 17
276 -94 416 -178 l93 -55 -55 50 c-132 122 -352 247 -537 306 l-43 13 0 -758z"/>
<path d="M3005 3596 c-49 -18 -122 -49 -161 -69 -95 -48 -266 -164 -334 -227
l-55 -51 74 47 c105 66 230 127 349 168 l102 35 0 -637 c0 -616 -1 -638 -19
-649 -74 -46 -333 -283 -432 -395 l-63 -70 120 79 c145 97 266 166 408 234
l106 51 0 759 c0 417 -1 759 -2 759 -2 -1 -43 -16 -93 -34z"/>
<path d="M3950 3487 c0 -83 0 -83 -38 -120 l-38 -37 -142 0 -142 0 0 -175 0
-175 178 2 177 3 3 145 3 145 31 32 c31 32 34 33 115 33 l83 0 0 115 0 115
-115 0 -115 0 0 -83z"/>
<path d="M1310 2601 l0 -758 113 -7 c235 -14 453 -60 645 -134 56 -22 102 -38
102 -37 0 10 -179 115 -264 156 -128 61 -222 92 -363 121 l-113 23 0 697 0
698 -60 0 -60 0 0 -759z"/>
<path d="M3210 2662 l0 -698 -97 -18 c-198 -36 -403 -118 -573 -230 -82 -53
-100 -72 -41 -42 53 28 259 95 357 116 105 22 334 50 422 50 l52 0 0 760 0
760 -60 0 -60 0 0 -698z"/>
<path d="M980 3118 c-24 -13 -53 -36 -64 -51 -21 -28 -21 -40 -24 -689 -2
-646 -2 -662 18 -703 13 -26 34 -49 59 -63 39 -22 40 -22 573 -20 l533 3 -126
42 c-224 74 -356 95 -649 102 l-255 6 -3 618 -2 617 85 0 85 0 0 80 0 80 -93
0 c-76 0 -100 -4 -137 -22z"/>
<path d="M3590 2276 l0 -534 -252 -5 c-202 -3 -275 -8 -363 -25 -119 -23 -290
-70 -370 -102 l-50 -19 545 2 545 2 31 22 c65 47 64 33 64 642 l0 551 -75 0
-75 0 0 -534z"/>
<path d="M2216 1474 c-9 -8 -16 -29 -16 -45 l0 -29 -158 0 c-179 0 -192 -5
-192 -73 0 -70 -17 -67 461 -67 278 0 437 4 450 10 15 8 19 21 19 59 0 28 -6
53 -13 60 -8 6 -76 12 -173 13 l-159 3 -3 30 c-5 45 -26 55 -118 55 -62 0 -87
-4 -98 -16z"/>
</g>
</svg>
