<?xml version="1.0" standalone="no"?>
<!DOCTYPE svg PUBLIC "-//W3C//DTD SVG 20010904//EN"
 "http://www.w3.org/TR/2001/REC-SVG-20010904/DTD/svg10.dtd">
<svg version="1.0" xmlns="http://www.w3.org/2000/svg"
 width="500.000000pt" height="120.000000pt" viewBox="0 0 500.000000 120.000000"
 preserveAspectRatio="xMidYMid meet">

<g transform="translate(0.000000,120.000000) scale(0.100000,-0.100000)"
fill="#000000" stroke="none">
<path d="M1670 1115 c0 -21 5 -25 30 -25 25 0 30 4 30 25 0 21 -5 25 -30 25
-25 0 -30 -4 -30 -25z"/>
<path d="M690 760 l1 -328 74 -36 c41 -19 95 -49 119 -65 25 -17 48 -31 52
-31 13 0 -55 67 -128 127 l-68 55 0 274 c0 242 2 274 16 274 21 0 110 -38 157
-67 58 -36 44 -19 -25 30 -61 43 -113 70 -171 87 l-27 9 0 -329z"/>
<path d="M1308 1066 c-54 -23 -163 -89 -173 -106 -3 -4 26 7 63 26 37 18 79
36 95 40 l27 6 0 -279 0 -279 -47 -36 c-27 -20 -73 -62 -103 -94 l-55 -57 48
32 c26 18 84 51 128 72 l79 40 0 330 c0 181 -1 329 -2 329 -2 -1 -29 -11 -60
-24z"/>
<path d="M1750 1032 c0 -56 -22 -72 -98 -72 l-62 0 0 -75 0 -75 75 0 75 0 0
63 c0 76 16 97 74 97 l37 0 -3 48 -3 47 -47 3 -48 3 0 -39z"/>
<path d="M600 640 l0 -330 53 0 c59 0 205 -31 262 -54 28 -12 35 -13 26 -2
-18 21 -142 75 -222 95 l-74 19 -3 301 c-2 293 -3 301 -22 301 -20 0 -20 -7
-20 -330z"/>
<path d="M1420 667 l0 -302 -62 -12 c-56 -11 -256 -99 -246 -109 2 -2 27 5 54
15 68 26 192 51 254 51 l50 0 0 330 0 330 -25 0 -25 0 0 -303z"/>
<path d="M2796 930 c-38 -12 -66 -38 -82 -77 -23 -53 -19 -63 25 -63 34 0 39
3 44 29 7 32 52 57 85 47 31 -10 46 -58 32 -100 -13 -41 -86 -124 -154 -176
-37 -29 -45 -41 -46 -67 l0 -33 150 0 150 0 0 35 0 35 -92 0 -92 0 57 51 c100
89 137 189 97 263 -25 48 -112 76 -174 56z"/>
<path d="M3050 890 c0 -38 2 -40 30 -40 l30 0 0 -179 0 -179 40 -4 40 -4 0
223 0 223 -70 0 -70 0 0 -40z"/>
<path d="M1993 703 l2 -208 123 -3 122 -3 0 30 0 30 -82 3 -83 3 -3 34 c-2 19
-1 44 2 57 6 22 11 24 76 24 l70 0 0 30 0 29 -72 3 -73 3 0 50 0 50 83 3 82 3
0 34 0 35 -125 0 -124 0 2 -207z"/>
<path d="M2320 701 l0 -211 40 0 40 0 0 80 c0 78 1 80 24 80 20 0 32 -14 66
-76 23 -41 48 -78 55 -80 7 -3 29 -4 48 -2 l35 3 -46 79 c-41 70 -44 79 -29
88 70 39 96 112 63 176 -26 51 -66 66 -188 70 l-108 4 0 -211z m210 119 c11
-11 20 -31 20 -45 0 -43 -33 -65 -95 -65 l-55 0 0 65 0 65 55 0 c42 0 60 -5
75 -20z"/>
<path d="M3482 890 c-19 -12 -40 -37 -49 -57 -29 -71 13 -137 102 -159 17 -4
47 -15 68 -26 29 -15 37 -24 37 -46 0 -38 -17 -52 -62 -52 -29 0 -41 6 -54 25
-13 20 -24 25 -61 25 -41 0 -44 -2 -38 -22 17 -57 81 -98 150 -98 93 0 155 53
155 133 0 53 -37 88 -123 116 -73 25 -97 42 -97 71 0 48 86 61 113 19 17 -27
97 -27 97 -1 0 25 -27 60 -60 77 -43 22 -138 19 -178 -5z"/>
<path d="M3810 695 l0 -215 40 0 39 0 3 138 3 137 56 -135 56 -135 33 0 33 0
56 135 56 135 3 -137 3 -138 39 0 40 0 0 215 0 215 -47 0 -48 0 -65 -155 c-36
-85 -67 -155 -70 -155 -3 0 -34 70 -70 155 l-65 155 -47 0 -48 0 0 -215z"/>
<path d="M4408 894 c-53 -28 -75 -115 -42 -162 18 -25 74 -56 121 -66 41 -9
83 -42 83 -65 0 -51 -84 -69 -118 -26 -15 19 -29 25 -61 25 -33 0 -41 -3 -41
-19 0 -51 78 -101 157 -101 62 0 112 27 136 74 39 75 -1 139 -112 175 -35 11
-70 26 -77 32 -21 17 -17 56 8 73 30 22 42 20 76 -9 21 -18 42 -25 71 -25 23
0 41 5 41 10 0 28 -35 73 -65 86 -44 18 -142 17 -177 -2z"/>
<path d="M437 858 c-15 -12 -17 -46 -18 -317 -1 -268 1 -305 15 -320 14 -14
50 -16 254 -18 166 -2 232 0 220 7 -41 25 -180 51 -300 57 l-128 6 0 269 0
268 35 0 c32 0 35 2 35 30 0 29 -1 30 -48 30 -27 0 -56 -6 -65 -12z"/>
<path d="M1590 502 l0 -229 -127 -6 c-120 -6 -259 -32 -301 -56 -12 -7 53 -10
209 -11 214 0 228 1 253 21 l26 20 0 245 0 244 -30 0 -30 0 0 -228z"/>
<path d="M2004 296 c-9 -23 3 -46 23 -46 15 0 15 2 -3 14 -15 12 -17 17 -6 28
10 10 16 10 33 -1 18 -10 20 -10 17 1 -7 20 -57 23 -64 4z"/>
<path d="M2118 299 c-12 -6 -18 -22 -18 -43 0 -20 7 -39 18 -47 14 -11 15 -11
5 1 -18 20 -16 65 3 81 12 10 22 10 46 1 25 -9 28 -9 18 4 -14 16 -47 18 -72
3z"/>
<path d="M2232 255 c0 -39 2 -51 7 -35 5 19 15 26 38 28 29 3 32 0 36 -30 2
-18 4 -4 4 32 0 36 -2 53 -4 38 -4 -24 -9 -28 -38 -28 -29 0 -34 4 -38 28 -2
15 -4 0 -5 -33z"/>
<path d="M2366 294 c-25 -25 -20 -71 10 -91 24 -15 29 -15 53 -2 16 9 27 25
29 43 6 53 -55 87 -92 50z m72 -6 c26 -26 3 -88 -33 -88 -21 0 -45 29 -45 54
0 28 18 46 45 46 12 0 26 -5 33 -12z"/>
<path d="M2500 290 c-11 -11 -20 -29 -20 -40 0 -25 34 -60 58 -59 13 0 12 2
-5 9 -48 19 -53 84 -8 96 45 11 72 -27 50 -69 -8 -15 -9 -27 -4 -27 9 0 29 41
29 61 0 16 -40 49 -60 49 -11 0 -29 -9 -40 -20z"/>
<path d="M2624 255 c1 -56 3 -60 26 -62 22 -2 23 -2 5 6 -15 6 -21 21 -26 62
l-6 54 1 -60z"/>
<path d="M2742 253 c1 -43 2 -48 5 -20 5 46 15 47 32 2 7 -19 16 -35 20 -35 4
0 16 17 26 38 l19 37 7 -45 c6 -43 6 -43 7 18 2 70 -6 73 -33 12 -10 -22 -21
-40 -25 -40 -4 0 -15 20 -24 45 -10 25 -22 45 -27 45 -5 0 -8 -26 -7 -57z"/>
<path d="M2907 259 c-10 -28 -16 -53 -13 -57 3 -3 6 0 6 6 0 19 58 14 69 -5
17 -28 13 -8 -10 52 -11 30 -24 55 -27 55 -4 0 -15 -23 -25 -51z m42 -16 c1
-7 -8 -13 -19 -13 -23 0 -23 0 -9 37 10 26 12 27 19 8 5 -11 9 -26 9 -32z"/>
<path d="M3012 255 c1 -58 1 -58 7 -16 l6 45 28 -42 c15 -23 32 -42 37 -42 6
0 10 25 10 55 0 32 -4 55 -10 55 -6 0 -10 -6 -9 -12 1 -7 1 -26 0 -43 l-2 -30
-17 24 c-9 14 -25 34 -34 45 -17 20 -17 19 -16 -39z"/>
<path d="M3141 254 c-12 -32 -19 -59 -16 -62 2 -3 7 3 11 12 7 18 64 23 64 4
0 -6 3 -9 6 -5 8 7 -25 107 -35 107 -5 0 -18 -25 -30 -56z m44 -1 c5 -19 2
-23 -14 -23 -23 0 -24 3 -15 38 7 26 18 20 29 -15z"/>
<path d="M3257 292 c-26 -28 -21 -69 9 -89 24 -15 29 -15 53 -2 14 8 27 24 29
35 2 16 -3 20 -28 22 -37 3 -40 -15 -3 -20 26 -3 26 -4 9 -20 -22 -22 -40 -23
-60 -2 -19 18 -21 55 -4 72 16 16 50 15 68 0 12 -11 12 -10 1 5 -17 22 -54 22
-74 -1z"/>
<path d="M3380 250 c0 -59 0 -60 28 -59 23 2 24 2 5 6 -16 3 -23 11 -23 28 0
17 7 25 23 28 l22 4 -22 2 c-35 2 -31 39 5 44 25 4 25 4 -5 6 l-33 1 0 -60z"/>
<path d="M3460 255 c0 -30 5 -55 10 -55 6 0 10 17 10 38 l1 37 14 -25 c20 -35
19 -18 -2 25 -9 19 -20 35 -25 35 -4 0 -8 -25 -8 -55z"/>
<path d="M3549 265 c-11 -25 -24 -45 -29 -45 -6 0 -10 -4 -10 -10 0 -23 22 -7
38 28 l16 37 7 -45 c6 -44 6 -43 7 18 1 34 -1 62 -4 62 -3 0 -14 -20 -25 -45z"/>
<path d="M3610 250 l0 -60 33 1 c29 1 30 2 7 8 -16 4 -25 14 -25 26 0 12 9 22
25 26 l25 7 -27 1 c-21 1 -28 6 -28 20 0 14 8 21 28 24 25 4 25 4 -5 6 l-33 1
0 -60z"/>
<path d="M3702 248 l1 -63 6 50 6 50 33 -47 c18 -27 35 -48 37 -48 3 0 4 28 3
63 l-1 62 -6 -50 -6 -50 -30 47 c-16 27 -33 48 -37 48 -5 0 -7 -28 -6 -62z"/>
<path d="M3827 303 c19 -4 23 -12 26 -56 l3 -52 2 52 c2 40 6 53 20 56 9 3 -3
5 -28 4 -25 0 -35 -2 -23 -4z"/>
<path d="M3964 296 c-9 -23 3 -46 23 -46 17 1 17 1 1 11 -10 5 -18 17 -18 24
0 18 31 20 49 3 11 -11 13 -10 9 2 -6 21 -57 26 -64 6z"/>
<path d="M4069 276 c12 -18 21 -46 22 -62 l1 -29 7 30 c4 17 15 45 25 63 9 17
12 32 7 32 -5 0 -14 -15 -21 -32 l-12 -33 -16 33 c-8 17 -20 32 -25 32 -5 0 1
-15 12 -34z"/>
<path d="M4164 296 c-9 -23 3 -46 23 -46 15 0 15 2 -3 14 -15 12 -17 17 -6 28
10 10 16 10 33 -1 18 -10 20 -10 17 1 -7 20 -57 23 -64 4z"/>
<path d="M4267 303 c19 -4 23 -12 26 -56 l3 -52 2 52 c2 40 6 53 20 56 9 3 -3
5 -28 4 -25 0 -35 -2 -23 -4z"/>
<path d="M4357 303 c-2 -5 -3 -30 -3 -58 1 -48 2 -50 31 -52 20 -1 23 0 8 4
-16 3 -23 12 -23 28 0 17 7 25 23 28 l22 4 -22 2 c-35 2 -31 39 5 44 26 4 25
4 -5 6 -17 0 -34 -2 -36 -6z"/>
<path d="M4442 253 c1 -43 2 -48 5 -20 5 46 15 47 32 2 7 -19 16 -35 20 -35 4
0 16 17 26 38 l19 37 7 -45 c6 -43 6 -43 7 18 2 70 -6 73 -33 12 -10 -22 -21
-40 -25 -40 -4 0 -15 20 -24 45 -10 25 -22 45 -27 45 -5 0 -8 -26 -7 -57z"/>
<path d="M4597 303 c19 -4 23 -12 26 -61 l3 -57 2 57 c2 44 6 58 20 61 9 3 -3
5 -28 4 -25 0 -35 -2 -23 -4z"/>
<path d="M2057 230 c6 -24 -21 -37 -42 -20 -9 7 -15 8 -15 2 0 -14 29 -24 51
-17 19 6 28 55 10 55 -5 0 -7 -9 -4 -20z"/>
<path d="M4017 230 c6 -24 -21 -37 -42 -20 -9 7 -15 8 -15 2 0 -14 29 -24 51
-17 20 7 26 39 10 49 -5 4 -7 -3 -4 -14z"/>
<path d="M4217 230 c7 -25 -21 -37 -45 -19 -16 12 -16 12 -1 -5 23 -25 59 -13
59 20 0 13 -4 24 -9 24 -5 0 -7 -9 -4 -20z"/>
<path d="M2185 220 c-4 -6 -17 -15 -29 -20 -14 -6 -16 -9 -5 -9 19 -1 56 25
47 34 -3 3 -9 1 -13 -5z"/>
<path d="M990 140 c-8 -16 -23 -20 -83 -22 -69 -3 -72 -4 -72 -28 l0 -25 196
-3 c169 -2 198 0 203 13 13 35 -4 45 -79 45 -64 0 -73 2 -78 20 -7 28 -72 28
-87 0z"/>
</g>
</svg>
